<svg xmlns="http://www.w3.org/2000/svg" viewBox="0 0 1750 1080"><linearGradient id="a" gradientUnits="userSpaceOnUse" x1="18.661" y1="596.446" x2="942.337" y2="596.446"><stop offset="0" stop-color="#951981"/><stop offset="1" stop-color="#134094"/></linearGradient><path d="M656.2 870.1c7.6 3.9 23.1 8.6 42.4 9.1 33.3.7 51.5-12 65-41.9l178.7-398.7c-7.4-3.9-23.8-8.3-37-8.6-23-.5-53.9 4.2-73.6 51.3l-57.9 136.6-113.4-185c-7.4-2.2-25.3-5.4-38.3-5.4-40.2 0-62.5 14.7-85.8 40L426 588.1l88.8 139.8c16.4 25.5 38 38.5 73.1 38.5 23 0 42.2-5.4 51-9.6l-107-161.1 75.8-80.4L732 710.4l-75.8 159.7zM421.7 719.3c0 29.4-11.5 46.3-68.9 46.3-7.6 0-14.2-.5-20.6-1.5V374.3c0-29.7 10-60.6 67.9-60.6 7.4 0 14.7.7 21.6 2.2v403.4zm-118.4-58.9c0 54.9-35.8 94.9-108.6 102.7-52.7 5.6-129-1-165.3-5.2-1.2-5.9-2.2-13.2-2.2-19.1 0-47.8 25.7-58.8 50-58.8 25.3 0 65 4.4 94.4 4.4 32.6 0 42.4-11 42.4-21.6 0-13.7-13-19.4-38.2-24.3l-69.1-13.2c-57.4-11-88-50.8-88-92.9 0-51.2 36.3-94.2 107.6-102 53.9-5.9 119.7.7 155.7 5.1 1.2 6.1 2 12 2 18.4 0 47.8-25.3 58.1-49.5 58.1-18.6 0-47.6-3.4-80.7-3.4-33.6 0-47.6 9.3-47.6 20.6 0 12 13.2 16.9 34.3 20.6l66 12.3c67.7 12.5 96.8 51 96.8 98.3z" fill="url(#a)"/><path d="M289.5 618.1c-7.6-12.9-18.6-21.9-19.4-22.6-10.4-8.8-22.7-14.8-24.1-15.5-10.8-4.8-23.1-9.2-33.3-11.1-8.9-1.6-78-13.9-92-18.4-9.8-3.1-14.2-8.6-14.6-9.1-3-4-3.9-6.9-3.9-8.2 0-1.2-.2-1.7-.9-2.2-2.2-1.5-2.3-3.7-2.3-4.6 0-7.8 7.4-13.6 8.3-14.4 7.1-5.6 18-7.9 19.9-8.2 5.5-.9 12.6-2.5 34.6-2.2 10.9.2 40.6 1.8 41.5 1.8 14.2.9 29.4 1.2 31 1.2 15.8 0 22.2-3.7 25.7-6.2 11-7.7 15.4-19.5 15.8-20.5 3.8-9.7 4.8-19.3 4.8-25.2 0-4.9-.2-9.8-.2-10.6-.1-1.3.1-1.9.2-2.5.1-.6-.5-.5-.2-.9s0-.5-.5-.5-2.4.4-3.8.2c-4.9-.5-15.1-1.6-16.6-1.7-16.5-1.5-47.1-3.8-60.7-4.3-11.3-.5-31.2-.5-38.2-.4-11 .2-25.1 1.2-34 2.2-8.3 1-20.5 3.5-31.5 6.9-10.6 3.3-21.8 8.5-30.4 14.1-6.3 4.1-18.4 13.3-26.4 25.5-5 7.7-10.8 18.7-13.1 29.4-2.5 11.3-2.9 21.4-1.8 31.4 1.1 10.1 3.6 17.8 6.5 23.6 4.4 8.9 12.2 18.2 13.3 19.4 9.1 10.2 21.8 18.1 29.7 21.9 9.2 4.4 23.6 8.3 28.9 9.4 5.3 1.1 22.6 3.7 25.1 4 2.5.3 23.9 2.6 25.1 2.7 4.6.4 11.6.8 19.9.8 10.2.1 57.7-7.3 59.7-7.6s25.2-3.4 26.4-3.6c16.6-2.9 27.7 12.2 28.3 13 3.7 4.5 6.9 11.1 8.1 13.3 1.2 2.2 2.8 5.5 3.9 6.8 0 0 2.1 8.5 2 16.8.7-6.7-1.1-16.6-1.2-17.2-1.8-11.4-5.9-20.4-9.6-26.7zm-91.2 70c-7.7 2.7-30.7 3.4-41.7 2.7-5.8-.4-55.9-3.4-60.5-3.5-14.3-.4-30.6-.8-43.4 5.9-10.9 5.8-19.9 19.4-21.1 38.6 4.3-17.4 8.6-23.1 15.7-29.7 8-7.5 17.8-9.2 21.4-9.6 13.7-1.7 33.3-.7 40.9-.4 7.6.4 50.4 2.8 53.3 2.9 17.3.5 26.9-1.1 29.4-1.5 15-2.7 20.4-9 22-10.9 3.9-4.5 9.2-12.6 5.6-19.4-.2 14.7-12 21.5-21.6 24.9zm218.5-362.6c0-2.4 1.2-5.1-1.5-5.8s-13.4-1.2-23.1-1.2c-15.4 0-30.7 6-39.9 13.5-3.3 2.7-11.6 12.8-14.1 26-2.6 13.2-1.9 29.4-1.9 31.6 0 2.2-.1 62.7.1 83.5 0 2.4.2 115 .4 133.9 0 3.1.1 109.5.4 112.4.1-12.6.6-86.8 3-103 2.5-16.2 5.8-16.5 15.3-17.9s34.4-4.5 42.3-5.4c11.1-1.4 13.9-8.3 14.6-17 2.9-32.7 3.2-69.7 3.6-84.4.1-3.3.6-70.2.7-76.9.1-6.7.1-86.9.1-89.3zm.5 261.1c0-1.5-.7-95.3-.7-95.3-.3 5.2-.2 79.1-.1 81.6V591c-.1.5.3.5.7.2.4-.2 1.1 0 .7-.7-.3-.5-.5-2.4-.6-3.9zm520-146.5c-3.7-1.2-19.7-5.5-32.6-5.4-9.4.1-24.9 1.1-38.2 9.1-3.2 1.9-11 8.4-16.7 15.8-2.9 3.8-8 12.4-13.8 26.6l-6.3 14.6-10.8 25-9.3 21.3-9.9 22.6-17.1 39.8s-3 7.2-3.5 8.5c-.3.7-.6 1.4-1.6 1.7.3-.2.7-1 .8-1.3.1-.4.6-1.2 1.3-2.6.7-1.4 6-13.5 6-13.5l13.3-31.1-10.6 23.9s-7.1 16.2-7.7 17.3-2.2 4.2-2.7 4.7-1.9 1.6-1.5 2.1c0 0-1.1.9-2.4.9-1.9-.1-3.4-.4-6.3-4.7-2.1-3.1-4.8-7.2-7.3-11-1.4-2.1-30-48.9-31.7-51.7s-19.9-32.4-21.3-34.9c-1.4-2.5-28.1-46.3-29.8-48.9s-16.4-26.8-17-27.8c-2.5-4-5.3-5.3-8-5.8-13.2-2.5-28.2-3.3-31.2-3.3-17.5 0-31.8 3.7-38.6 6.5-11.2 4.6-21.8 11.9-29.2 18.1-9.7 8.1-21.5 20.7-24 23.4-2.5 2.7-16.1 17.6-23.7 26 0 0-45.7 49.9-47.6 51.9s-25.2 26.9-27.5 30.2c-1.3 1.9-.3 2.6 1.3 2.8 1.8 0 3.8-.2 5.3-.6 1.5-.4 6.5-2.8 9.6-4 6.3-2.5 36.6-6.2 40.5-6.8 3.9-.5 27.5-3.8 28.6-3.9 7.2-.9 10.6-1.8 11.6-2.1 8.9-3 15.9-9.3 16.9-10 5.1-3.9 18.1-16.5 19-17.4 2.5-2.6 20-19.9 20.8-20.6 4.2-4.2 14.2-13.2 16.1-14.8s4.5-2.8 6.6-2.8c2 0 3.1.8 4.3 1.5 1.2.8 2.1 2.6 2.4 3.2.3.5 3.7 5.5 4.6 7 1 1.5 13.4 19.1 15.2 21.5 1.8 2.4 6.6 8.5 9.1 10.8 2.5 2.3 5.3 3.7 7.1 4.2s5.7.4 8.3.1c2.6-.3 25.8-3.6 27.5-3.8 1.7-.2 16.7-2.3 19.7-2.7 3.8-.5 7.6-.7 8.9-.6 3.9.3 6.3 2.2 7 2.6 2.5 1.5 6.9 7.2 7.3 7.7 2.6 3.1 8.9 12.9 9.4 13.8 2.2 3.2 15.3 23.5 16.3 25s11.5 17.7 12.1 18.7c.7 1 2.9 4.2 4 5.3 1.4 1.3 2.9 1.6 3.8 1.6 2.3 0 3.4-.7 4.3-1.3 1.6-1.2 3.1-4.9 3.4-5.6 2.8-6.9 12-27.5 12.4-28.4 3.5-8 11.5-25.1 12.7-27.5 4.5-9.1 8.2-15.6 8.8-16.5 4-6.1 6-7.7 8.5-9.5s6.7-2.5 10.7-2.9l22.2-3s22.8-3.1 25.8-3.5c3-.5 6.2-1.7 7.7-2.6 2.4-1.5 5.5-5.3 5.9-5.8 3.8-5.1 7.6-12.1 8.8-14.4s9-17.4 9.9-19.5c1-2.1 12.6-26.1 12.9-26.6 2.9-6.1 5.4-10.9 5.8-11.6 1.4-2.6 2.6-3.2 3.6-3.6.9-.4.6-1.1-.2-1.4zm-307 313.4c-.6-.8-17.9-26.8-19.3-28.9s-23.5-34.8-24.3-35.8c-9.8-13.8-36.6-54.7-37.9-56.6-1.3-1.9-18.2-28.3-18.5-28.9-2.1-3.8-3-5.5-2.9-6.6-2.2.2-3.4.1-3.8 1.4-.3 1.3 1.2 3.2 3.4 6.3 1.5 2.2 12.1 18.1 14.5 21.5 2.4 3.4 15.2 22.3 18.2 26.6 1.9 2.8 17.3 24.7 19.4 27.8 2.1 3 12.8 18.2 15.1 21.4s26.9 39.6 27.7 40.8c.7 1.1 5 7.5 6.2 9.1 1.1 1.5 2.3 2.6 2.8 2.9.5.2.7.5.7.9.6-.3-.6-.9-1.3-1.9zm106.8-40.2c-.8-.2-.9 0-1 .4-.1.4-.7 2.3-1 3.2-.4.9-7.2 15.6-7.7 16.6-.5.9-8.3 17.8-9.1 19.2-.7 1.4-8.9 19-9.5 20.2-.6 1.2-8.6 18.4-9.1 19.5-.5 1.1-8.5 18.2-9.1 19.4-.6 1.3-9.9 20.7-10.7 22.3-.8 1.6-5.9 12.3-6.4 13.4-.5 1.1-5.2 10.6-5.8 11.9-.5 1-3.2 6.7-3.5 7.2-.3.5-.2 1.2-.1 1.3.2.1 1.3-1.7 1.8-2.8.5-1.1 12.1-24.5 12.7-25.8.7-1.4 14.5-30 14.9-30.8 1-2.1 12.3-26.2 12.7-26.9 2.3-5.2 16.8-35.5 17.6-37.2.8-1.7 7.5-15.6 8-16.6 1-2.1 5-9.5 5.7-10.8.7-1.3 1.7-3.3.8-4.7-.2.4-.4 1.2-1.2 1z" fill-rule="evenodd" clip-rule="evenodd" fill="#fff" opacity=".3"/><linearGradient id="b" gradientUnits="userSpaceOnUse" x1="834.998" y1="540" x2="1731.339" y2="540"><stop offset="0" stop-color="#ec6602"/><stop offset="1" stop-color="#e50071"/></linearGradient><path d="M1728.7 51.9c-5.3-16.5-18.3-30-34.5-35.9-15.7-5.7-33.5-4.1-47.9 4.3-5.4 3.2-10 7.3-14.7 11.5-2.7 2.5-76.8 70.6-121.7 117.8-14.7 15.5-206.8 224-255.1 277.7-119-138.6-222.4-258.4-222.6-258.6-62.2-68.1-173.8 71.9-82.1 164.6 78 78.5 140.2 141.8 205.4 208.1-101 121.1-208.7 258.5-303.4 384.8-67.3 89.8 82.4 197.6 147.7 106.7 126.5-175.9 270-375.5 270-375.5 80.3 81.1 176.3 177.4 312 312.1 45.1 42.2 118.3-28.9 26.6-128 0 0-243.6-299.1-244.4-300 7.6-14.1 36.2-54.6 266.5-335.4.3-.4 88.6-101.2 91.6-105.8 9.3-14.2 11.7-32.3 6.6-48.4z" fill="url(#b)"/><path d="M961.1 795.5s182.9-209.1 315.4-261.6c114.5-45.4 164.3-111.6 164.3-111.6 40-50.3 273.2-321.9 274.5-323.7 8.3-12.6 10.5-28.8 5.9-43.2-4.7-14.8-15.2-25.5-29.7-30.8-5.5-2-11.3-3-17.2-3-9.1 0-17.9 2.4-25.6 6.9-4.8 2.8-9 6.5-13.6 10.7-.7.7-75.8 69.6-121 117.2-13 13.6-205.5 222.5-254.2 276.7l-4.5 5-4.3-5.1c-116-135.1-220.2-255.8-221.8-257.7-9.7-10.7-21-16.1-33.4-16.1-24.7 0-51.2 22.1-64.4 53.9-17.2 41.2-8.1 85.4 24.4 118.3 67.1 67.6 123.6 124.9 178.2 180.4l30.3 30.8-3.4 4.1c-63.1 75.4-131.6 160.8-199.9 248.8" opacity=".25" fill="#fff"/><path d="M1361.7 545.1c.1 1.4 1.4 3.6 4.7 8.3.5.7 25.9 33.4 27.9 35.7s42.2 52.8 56.9 69.8c1.2 1.3 34.3 41.6 36.4 44.2 2.1 2.6 31.6 37.4 30.7 38-.5.3-3.4-2.6-5-4.5-1.7-2-8.1-9.8-9.3-11.3-1.1-1.4-38.1-46.3-41.5-50.3-3.4-4-19.4-22.6-22.5-26.3-3.1-3.7-26-30.7-28.9-34.1-4.4-5.3-23.6-28.6-27.2-32.7s-19.4-23.7-21.7-26.5c-3.2-3.9-5.5-6.1-5.2-7.9.2-1.9 1.8-1.9 4.7-2.4z" opacity=".25" fill-rule="evenodd" clip-rule="evenodd" fill="#fff"/></svg>
